# xmcd
#
# Track frame offsets: 
#        150
#        2923
#        10988
#        29271
#        49949
#        64721
#        82424
#        93689
#        113356
#        133094
#        149455
#        162902
#        183537
#        198397
#        206935
#        217105
#        226863
#
# Disc length: 3166 seconds
#
# Revision: 0
# Processed by: cddbd v1.5.2PL0 Copyright (c) Steve Scherf et al.
# Submitted via: ExactAudioCopyFreeDBPlugin 1.0
#
DISCID=fc0c5c11
DTITLE=Edwin "Buster" Pickens - The 1959 to 1961 Sessions
DYEAR=2013
DGENRE=Blues
TTITLE0=Boar Hog Blues
TTITLE1=You Got a Good Business
TTITLE2=Santa Fe Train
TTITLE3=Rock Island Blues
TTITLE4=Ain't Nobody's Business
TTITLE5=Colorado Springs Blues
TTITLE6=She Caught the L and N
TTITLE7=Remember Me
TTITLE8=Mountain Jack
TTITLE9=D. B. A. Blues
TTITLE10=Hattie Green
TTITLE11=Backdoor Blues
TTITLE12=Santa Fe Blues
TTITLE13=The Ma Grinder No. 2
TTITLE14=You Better Stop Your Woman (From Tickling Me Under the Chin)
TTITLE15=Jim Nappy
TTITLE16=Women in Chicago
EXTD=
EXTT0=
EXTT1=
EXTT2=
EXTT3=
EXTT4=
EXTT5=
EXTT6=
EXTT7=
EXTT8=
EXTT9=
EXTT10=
EXTT11=
EXTT12=
EXTT13=
EXTT14=
EXTT15=
EXTT16=
PLAYORDER=
